<?xml version="1.0" encoding="UTF-8" standalone="no"?>
<svg
   xmlns:dc="http://purl.org/dc/elements/1.1/"
   xmlns:cc="http://creativecommons.org/ns#"
   xmlns:rdf="http://www.w3.org/1999/02/22-rdf-syntax-ns#"
   xmlns:svg="http://www.w3.org/2000/svg"
   xmlns="http://www.w3.org/2000/svg"
   xmlns:sodipodi="http://sodipodi.sourceforge.net/DTD/sodipodi-0.dtd"
   xmlns:inkscape="http://www.inkscape.org/namespaces/inkscape"
   version="1.1"
   id="svg969"
   width="543.35999"
   height="379.20001"
   viewBox="0 0 543.35999 379.20001"
   sodipodi:docname="kajto.svg"
   inkscape:version="1.0.1 (3bc2e813f5, 2020-09-07)"
   inkscape:export-filename="/home/neil/Documents/desegnacxo/ekzemplo.png"
   inkscape:export-xdpi="106"
   inkscape:export-ydpi="106">
  <metadata
     id="metadata975">
    <rdf:RDF>
      <cc:Work
         rdf:about="">
        <dc:format>image/svg+xml</dc:format>
        <dc:type
           rdf:resource="http://purl.org/dc/dcmitype/StillImage" />
        <dc:title></dc:title>
      </cc:Work>
    </rdf:RDF>
  </metadata>
  <defs
     id="defs973" />
  <sodipodi:namedview
     pagecolor="#ffffff"
     bordercolor="#666666"
     borderopacity="1"
     objecttolerance="10"
     gridtolerance="10"
     guidetolerance="10"
     inkscape:pageopacity="1"
     inkscape:pageshadow="2"
     inkscape:window-width="1920"
     inkscape:window-height="1016"
     id="namedview971"
     showgrid="false"
     inkscape:zoom="1.5458672"
     inkscape:cx="159.29346"
     inkscape:cy="198.18371"
     inkscape:window-x="0"
     inkscape:window-y="0"
     inkscape:window-maximized="1"
     inkscape:current-layer="layer1"
     inkscape:snap-global="false"
     inkscape:document-rotation="0" />
  <g
     inkscape:groupmode="layer"
     id="layer1"
     inkscape:label="kopio"
     style="display:inline">
    <path
       id="path1018"
       style="fill:none;fill-rule:evenodd;stroke:#333333;stroke-width:1px;stroke-linecap:butt;stroke-linejoin:miter;stroke-opacity:1"
       d="m 254.96865,198.77187 c 1.04078,20.20776 -19.4869,47.11449 -46.29551,42.27422 l 4.47664,-13.50668 m 0,0 c 19.25762,10.41313 34.30094,-11.66985 34.18577,-29.31085"
       sodipodi:nodetypes="ccccc" />
    <path
       id="path1025"
       style="fill:none;fill-rule:evenodd;stroke:#333333;stroke-width:1px;stroke-linecap:butt;stroke-linejoin:miter;stroke-opacity:1"
       d="m 112.71346,263.31621 c -2.47825,-0.69528 -0.67714,-41.4691 21.14191,-41.01802 l 4.97735,12.5672 c -9.98018,-2.03677 -16.79276,8.40302 -16.48351,26.69771"
       sodipodi:nodetypes="cccc" />
    <g
       id="g1190">
      <path
         style="fill:none;fill-rule:evenodd;stroke:#333333;stroke-width:1px;stroke-linecap:round;stroke-linejoin:miter;stroke-opacity:1"
         d="m 2.1003536,279.7323 c 2.2503789,-1.53393 3.6123429,1.29104 3.6439809,4.56557"
         id="path1062"
         sodipodi:nodetypes="cc" />
      <path
         style="fill:none;fill-rule:evenodd;stroke:#333333;stroke-width:1px;stroke-linecap:round;stroke-linejoin:miter;stroke-opacity:1"
         d="m 6.361622,280.12419 c 2.2503784,-1.53393 3.6123434,1.29104 3.643981,4.56557"
         id="path1064"
         sodipodi:nodetypes="cc" />
      <path
         style="fill:none;fill-rule:evenodd;stroke:#333333;stroke-width:1px;stroke-linecap:round;stroke-linejoin:miter;stroke-opacity:1"
         d="m 12.349966,280.13451 c 2.241679,-1.54661 3.619577,1.27062 3.66971,4.54492"
         id="path1066"
         sodipodi:nodetypes="cc" />
      <path
         style="fill:none;fill-rule:evenodd;stroke:#333333;stroke-width:1px;stroke-linecap:round;stroke-linejoin:miter;stroke-opacity:1"
         d="m 18.349966,282.13451 c 2.241679,-1.54661 3.619577,1.27062 3.66971,4.54492"
         id="path1068"
         sodipodi:nodetypes="cc" />
      <path
         style="fill:none;fill-rule:evenodd;stroke:#333333;stroke-width:1px;stroke-linecap:round;stroke-linejoin:miter;stroke-opacity:1"
         d="m 22.611234,280.65703 c 2.241679,-1.54661 3.619577,1.27062 3.66971,4.54492"
         id="path1070"
         sodipodi:nodetypes="cc" />
      <path
         style="fill:none;fill-rule:evenodd;stroke:#333333;stroke-width:1px;stroke-linecap:round;stroke-linejoin:miter;stroke-opacity:1"
         d="m 28.611234,282.26514 c 2.241679,-1.54661 3.619577,1.27062 3.66971,4.54492"
         id="path1072"
         sodipodi:nodetypes="cc" />
      <path
         style="fill:none;fill-rule:evenodd;stroke:#333333;stroke-width:1px;stroke-linecap:round;stroke-linejoin:miter;stroke-opacity:1"
         d="m 35.566162,284.26514 c 2.241679,-1.54661 3.619577,1.27062 3.66971,4.54492"
         id="path1074"
         sodipodi:nodetypes="cc" />
      <path
         style="fill:none;fill-rule:evenodd;stroke:#333333;stroke-width:1px;stroke-linecap:round;stroke-linejoin:miter;stroke-opacity:1"
         d="m 41.566162,284.26514 c 2.241679,-1.54661 3.619577,1.27062 3.66971,4.54492"
         id="path1076"
         sodipodi:nodetypes="cc" />
      <path
         style="fill:none;fill-rule:evenodd;stroke:#333333;stroke-width:1px;stroke-linecap:round;stroke-linejoin:miter;stroke-opacity:1"
         d="m 47.566162,284.78766 c 2.241679,-1.54661 3.619577,1.27062 3.66971,4.54492"
         id="path1078"
         sodipodi:nodetypes="cc" />
      <path
         style="fill:none;fill-rule:evenodd;stroke:#333333;stroke-width:1px;stroke-linecap:round;stroke-linejoin:miter;stroke-opacity:1"
         d="m 53.566162,286.78766 c 2.241679,-1.54661 3.619577,1.27062 3.66971,4.54492"
         id="path1080"
         sodipodi:nodetypes="cc" />
      <path
         style="fill:none;fill-rule:evenodd;stroke:#333333;stroke-width:1px;stroke-linecap:round;stroke-linejoin:miter;stroke-opacity:1"
         d="m 59.566162,286.78766 c 2.241679,-1.54661 3.619577,1.27062 3.66971,4.54492"
         id="path1082"
         sodipodi:nodetypes="cc" />
      <path
         style="fill:none;fill-rule:evenodd;stroke:#333333;stroke-width:1px;stroke-linecap:round;stroke-linejoin:miter;stroke-opacity:1"
         d="m 65.304894,285.8327 c 2.241679,-1.54661 3.619577,1.27062 3.66971,4.54492"
         id="path1084"
         sodipodi:nodetypes="cc" />
      <path
         style="fill:none;fill-rule:evenodd;stroke:#333333;stroke-width:1px;stroke-linecap:round;stroke-linejoin:miter;stroke-opacity:1"
         d="m 71.304894,285.8327 c 2.241679,-1.54661 3.619577,1.27062 3.66971,4.54492"
         id="path1086"
         sodipodi:nodetypes="cc" />
      <path
         style="fill:none;fill-rule:evenodd;stroke:#333333;stroke-width:1px;stroke-linecap:round;stroke-linejoin:miter;stroke-opacity:1"
         d="m 77.304894,285.8327 c 2.241679,-1.54661 3.619577,1.27062 3.66971,4.54492"
         id="path1088"
         sodipodi:nodetypes="cc" />
      <path
         style="fill:none;fill-rule:evenodd;stroke:#333333;stroke-width:1px;stroke-linecap:round;stroke-linejoin:miter;stroke-opacity:1"
         d="m 83.304894,287.57144 c 2.241679,-1.54661 3.619577,1.27062 3.66971,4.54492"
         id="path1090"
         sodipodi:nodetypes="cc" />
      <path
         style="fill:none;fill-rule:evenodd;stroke:#333333;stroke-width:1px;stroke-linecap:round;stroke-linejoin:miter;stroke-opacity:1"
         d="m 89.304894,289.57144 c 2.241679,-1.54661 3.619577,1.27062 3.66971,4.54492"
         id="path1092"
         sodipodi:nodetypes="cc" />
      <path
         style="fill:none;fill-rule:evenodd;stroke:#333333;stroke-width:1px;stroke-linecap:round;stroke-linejoin:miter;stroke-opacity:1"
         d="m 95.304894,289.57144 c 2.241679,-1.54661 3.619577,1.27062 3.66971,4.54492"
         id="path1094"
         sodipodi:nodetypes="cc" />
      <path
         style="fill:none;fill-rule:evenodd;stroke:#333333;stroke-width:1px;stroke-linecap:round;stroke-linejoin:miter;stroke-opacity:1"
         d="m 101.30489,290.22459 c 2.24168,-1.54661 3.61958,1.27062 3.66971,4.54492"
         id="path1096"
         sodipodi:nodetypes="cc" />
      <path
         style="fill:none;fill-rule:evenodd;stroke:#333333;stroke-width:1px;stroke-linecap:round;stroke-linejoin:miter;stroke-opacity:1"
         d="m 107.30489,289.8327 c 2.24168,-1.54661 3.61958,1.27062 3.66971,4.54492"
         id="path1098"
         sodipodi:nodetypes="cc" />
      <path
         style="fill:none;fill-rule:evenodd;stroke:#333333;stroke-width:1px;stroke-linecap:round;stroke-linejoin:miter;stroke-opacity:1"
         d="m 113.30489,289.8327 c 2.24168,-1.54661 3.61958,1.27062 3.66971,4.54492"
         id="path1100"
         sodipodi:nodetypes="cc" />
      <path
         style="fill:none;fill-rule:evenodd;stroke:#333333;stroke-width:1px;stroke-linecap:round;stroke-linejoin:miter;stroke-opacity:1"
         d="m 119.30489,289.8327 c 2.24168,-1.54661 3.61958,1.27062 3.66971,4.54492"
         id="path1102"
         sodipodi:nodetypes="cc" />
      <path
         style="fill:none;fill-rule:evenodd;stroke:#333333;stroke-width:1px;stroke-linecap:round;stroke-linejoin:miter;stroke-opacity:1"
         d="m 125.30489,289.8327 c 2.24168,-1.54661 3.61958,1.27062 3.66971,4.54492"
         id="path1104"
         sodipodi:nodetypes="cc" />
      <path
         style="fill:none;fill-rule:evenodd;stroke:#333333;stroke-width:1px;stroke-linecap:round;stroke-linejoin:miter;stroke-opacity:1"
         d="m 131.30489,290.48586 c 2.24168,-1.54661 3.61958,1.27062 3.66971,4.54492"
         id="path1106"
         sodipodi:nodetypes="cc" />
      <path
         style="fill:none;fill-rule:evenodd;stroke:#333333;stroke-width:1px;stroke-linecap:round;stroke-linejoin:miter;stroke-opacity:1"
         d="m 137.30489,290.48586 c 2.24168,-1.54661 3.61958,1.27062 3.66971,4.54492"
         id="path1108"
         sodipodi:nodetypes="cc" />
      <path
         style="fill:none;fill-rule:evenodd;stroke:#333333;stroke-width:1px;stroke-linecap:round;stroke-linejoin:miter;stroke-opacity:1"
         d="m 141.69679,289.83271 c 2.24168,-1.54661 3.61958,1.27062 3.66971,4.54492"
         id="path1110"
         sodipodi:nodetypes="cc" />
      <path
         style="fill:none;fill-rule:evenodd;stroke:#333333;stroke-width:1px;stroke-linecap:round;stroke-linejoin:miter;stroke-opacity:1"
         d="m 147.56616,289.83271 c 2.24168,-1.54661 3.61958,1.27062 3.66971,4.54492"
         id="path1112"
         sodipodi:nodetypes="cc" />
      <path
         style="fill:none;fill-rule:evenodd;stroke:#333333;stroke-width:1px;stroke-linecap:round;stroke-linejoin:miter;stroke-opacity:1"
         d="m 153.56616,289.83271 c 2.24168,-1.54661 3.61958,1.27062 3.66971,4.54492"
         id="path1114"
         sodipodi:nodetypes="cc" />
      <path
         style="fill:none;fill-rule:evenodd;stroke:#333333;stroke-width:1px;stroke-linecap:round;stroke-linejoin:miter;stroke-opacity:1"
         d="m 159.56616,289.83271 c 2.24168,-1.54661 3.61958,1.27062 3.66971,4.54492"
         id="path1116"
         sodipodi:nodetypes="cc" />
      <path
         style="fill:none;fill-rule:evenodd;stroke:#333333;stroke-width:1px;stroke-linecap:round;stroke-linejoin:miter;stroke-opacity:1"
         d="m 163.56616,289.83271 c 2.24168,-1.54661 3.61958,1.27062 3.66971,4.54492"
         id="path1118"
         sodipodi:nodetypes="cc" />
      <path
         style="fill:none;fill-rule:evenodd;stroke:#333333;stroke-width:1px;stroke-linecap:round;stroke-linejoin:miter;stroke-opacity:1"
         d="m 179.56616,289.83271 c 2.24168,-1.54661 3.61958,1.27062 3.66971,4.54492"
         id="path1120"
         sodipodi:nodetypes="cc" />
      <path
         style="fill:none;fill-rule:evenodd;stroke:#333333;stroke-width:1px;stroke-linecap:round;stroke-linejoin:miter;stroke-opacity:1"
         d="m 185.56616,291.83271 c 2.24168,-1.54661 3.61958,1.27062 3.66971,4.54492"
         id="path1122"
         sodipodi:nodetypes="cc" />
      <path
         style="fill:none;fill-rule:evenodd;stroke:#333333;stroke-width:1px;stroke-linecap:round;stroke-linejoin:miter;stroke-opacity:1"
         d="m 191.56616,291.83271 c 2.24168,-1.54661 3.61958,1.27062 3.66971,4.54492"
         id="path1124"
         sodipodi:nodetypes="cc" />
      <path
         style="fill:none;fill-rule:evenodd;stroke:#333333;stroke-width:1px;stroke-linecap:round;stroke-linejoin:miter;stroke-opacity:1"
         d="m 197.56616,291.83271 c 2.24168,-1.54661 3.61958,1.27062 3.66971,4.54492"
         id="path1126"
         sodipodi:nodetypes="cc" />
      <path
         style="fill:none;fill-rule:evenodd;stroke:#333333;stroke-width:1px;stroke-linecap:round;stroke-linejoin:miter;stroke-opacity:1"
         d="m 207.82742,291.57145 c 2.24168,-1.54661 3.61958,1.27062 3.66971,4.54492"
         id="path1128"
         sodipodi:nodetypes="cc" />
      <path
         style="fill:none;fill-rule:evenodd;stroke:#333333;stroke-width:1px;stroke-linecap:round;stroke-linejoin:miter;stroke-opacity:1"
         d="m 213.82742,291.57145 c 2.24168,-1.54661 3.61958,1.27062 3.66971,4.54492"
         id="path1132"
         sodipodi:nodetypes="cc" />
      <path
         style="fill:none;fill-rule:evenodd;stroke:#333333;stroke-width:1px;stroke-linecap:round;stroke-linejoin:miter;stroke-opacity:1"
         d="m 219.82742,291.57145 c 2.24168,-1.54661 3.61958,1.27062 3.66971,4.54492"
         id="path1134"
         sodipodi:nodetypes="cc" />
      <path
         style="fill:none;fill-rule:evenodd;stroke:#333333;stroke-width:1px;stroke-linecap:round;stroke-linejoin:miter;stroke-opacity:1"
         d="m 225.82742,293.57145 c 2.24168,-1.54661 3.61958,1.27062 3.66971,4.54492"
         id="path1136"
         sodipodi:nodetypes="cc" />
      <path
         style="fill:none;fill-rule:evenodd;stroke:#333333;stroke-width:1px;stroke-linecap:round;stroke-linejoin:miter;stroke-opacity:1"
         d="m 231.82742,293.57145 c 2.24168,-1.54661 3.61958,1.27062 3.66971,4.54492"
         id="path1138"
         sodipodi:nodetypes="cc" />
      <path
         style="fill:none;fill-rule:evenodd;stroke:#333333;stroke-width:1px;stroke-linecap:round;stroke-linejoin:miter;stroke-opacity:1"
         d="m 237.82742,293.57145 c 2.24168,-1.54661 3.61958,1.27062 3.66971,4.54492"
         id="path1140"
         sodipodi:nodetypes="cc" />
      <path
         style="fill:none;fill-rule:evenodd;stroke:#333333;stroke-width:1px;stroke-linecap:round;stroke-linejoin:miter;stroke-opacity:1"
         d="m 243.82742,293.57145 c 2.24168,-1.54661 3.61958,1.27062 3.66971,4.54492"
         id="path1142"
         sodipodi:nodetypes="cc" />
      <path
         style="fill:none;fill-rule:evenodd;stroke:#333333;stroke-width:1px;stroke-linecap:round;stroke-linejoin:miter;stroke-opacity:1"
         d="m 251.82742,293.57145 c 2.24168,-1.54661 3.61958,1.27062 3.66971,4.54492"
         id="path1144"
         sodipodi:nodetypes="cc" />
      <path
         style="fill:none;fill-rule:evenodd;stroke:#333333;stroke-width:1px;stroke-linecap:round;stroke-linejoin:miter;stroke-opacity:1"
         d="m 257.82742,293.57145 c 2.24168,-1.54661 3.61958,1.27062 3.66971,4.54492"
         id="path1146"
         sodipodi:nodetypes="cc" />
    </g>
    <path
       id="path1032"
       style="fill:#ffffff;fill-rule:evenodd;stroke:#333333;stroke-width:1px;stroke-linecap:butt;stroke-linejoin:miter;stroke-opacity:1"
       d="m 155.30624,272.84101 c -13.5661,0.899 -15.24313,23.04438 -14.88901,31.16538 l -7.88472,-1.04008 c -1.66792,-16.26332 6.93398,-39.36807 19.81816,-37.20613"
       sodipodi:nodetypes="cccc" />
    <path
       style="fill:none;fill-rule:evenodd;stroke:#333333;stroke-width:1px;stroke-linecap:butt;stroke-linejoin:miter;stroke-opacity:1"
       d="m 162.71078,290.43939 c -5.75258,14.26014 -36.54876,15.37898 -48.22667,16.72113 -12.21108,1.40343 -24.32935,4.28276 -36.620769,4.31752 -13.716445,0.0388 -40.893057,-4.58685 -40.893057,-4.58685"
       id="path1048"
       sodipodi:nodetypes="cssc" />
    <path
       id="path1045"
       style="fill:#ffffff;fill-rule:evenodd;stroke:#333333;stroke-width:1px;stroke-linecap:butt;stroke-linejoin:miter;stroke-opacity:1"
       d="m 193.98719,266.91083 c 12.33908,4.99331 18.04233,23.71652 17.94441,40.77273 l -9.82215,5.94347 c 0.21038,-12.67798 -0.19202,-35.54379 -12.77513,-37.2475"
       sodipodi:nodetypes="cccc" />
    <path
       style="fill:#ffffff;fill-rule:evenodd;stroke:#4d4d4d;stroke-width:1.88976;stroke-linecap:butt;stroke-linejoin:miter;stroke-miterlimit:4;stroke-dasharray:none;stroke-opacity:1"
       d="m 131.83172,215.65225 c 7.79526,-12.0405 31.28509,-58.32797 39.40157,-70.09249 0,0 44.62556,58.24652 50.37737,73.59575 0,0 -37.82412,64.52164 -48.89342,88.28444 -5.39892,-3.43239 -38.10915,-81.90375 -40.88552,-91.7877 z"
       id="path982"
       sodipodi:nodetypes="ccccc" />
    <path
       style="fill:none;fill-rule:evenodd;stroke:#4d4d4d;stroke-width:1px;stroke-linecap:butt;stroke-linejoin:miter;stroke-opacity:1"
       d="m 170.40083,305.50961 c 9.48129,-21.84301 12.05558,-132.32939 0.83246,-159.94985"
       id="path1004"
       sodipodi:nodetypes="cc" />
    <path
       style="fill:#333333;fill-rule:evenodd;stroke:#333333;stroke-width:1px;stroke-linecap:butt;stroke-linejoin:miter;stroke-opacity:1"
       d="m 161.51373,242.94244 c 2.04797,5.0581 19.83123,7.16941 29.37737,-0.99081 0,0 0.86865,18.00646 -12.69953,18.99576 -7.56319,0.55146 -15.12301,-2.2968 -16.67784,-18.00495 z"
       id="path1002"
       sodipodi:nodetypes="ccsc" />
    <path
       style="fill:none;fill-rule:evenodd;stroke:#4d4d4d;stroke-width:1px;stroke-linecap:butt;stroke-linejoin:miter;stroke-opacity:1"
       d="m 131.83172,215.65225 c 8.16474,6.27361 65.16709,11.47798 89.77894,3.50326"
       id="path1006"
       sodipodi:nodetypes="cc" />
    <ellipse
       style="fill:none;stroke:#4d4d4d;stroke-width:1.51181;stroke-linecap:round;stroke-linejoin:round;stroke-miterlimit:4;stroke-dasharray:none;paint-order:stroke markers fill"
       id="path1008"
       cx="161.73268"
       cy="202.53075"
       rx="5.2013636"
       ry="5.4592452" />
    <ellipse
       style="fill:none;stroke:#4d4d4d;stroke-width:1.51181;stroke-linecap:round;stroke-linejoin:round;stroke-miterlimit:4;stroke-dasharray:none;paint-order:stroke markers fill"
       id="path1010"
       cx="192.96848"
       cy="201.77716"
       rx="5.0769472"
       ry="4.7179818" />
    <ellipse
       style="fill:#333333;stroke:none;stroke-width:1.51181;stroke-linecap:round;stroke-linejoin:round;stroke-miterlimit:4;stroke-dasharray:none;paint-order:stroke markers fill"
       id="path1012"
       cx="163.10172"
       cy="202.64494"
       rx="1.2305942"
       ry="1.1154258" />
    <ellipse
       style="fill:#333333;stroke:none;stroke-width:1.51181;stroke-linecap:round;stroke-linejoin:round;stroke-miterlimit:4;stroke-dasharray:none;paint-order:stroke markers fill"
       id="ellipse1014"
       cx="194.28273"
       cy="201.73692"
       rx="1.2305942"
       ry="1.1154258" />
    <ellipse
       style="fill:#ffffff;stroke:#333333;stroke-width:2.26772;stroke-linecap:round;stroke-linejoin:round;stroke-miterlimit:4;stroke-dasharray:none;stroke-opacity:1;paint-order:stroke markers fill"
       id="path1030"
       cx="117.93947"
       cy="265.58423"
       rx="6.5202489"
       ry="5.1575875" />
    <path
       style="fill:#333333;fill-rule:evenodd;stroke:#333333;stroke-width:1px;stroke-linecap:butt;stroke-linejoin:miter;stroke-opacity:1"
       d="m 140.43753,316.78254 -11.03207,-0.51269 c -3.68386,0.30897 -9.21899,-11.56088 0.76818,-13.03018 0,0 4.76258,-0.4486 10.4058,0.74129 3.81988,0.80544 5.37455,13.06981 -0.14191,12.80158 z"
       id="path1038" />
    <path
       style="fill:#333333;fill-opacity:1;fill-rule:evenodd;stroke:#333333;stroke-width:1px;stroke-linecap:butt;stroke-linejoin:miter;stroke-opacity:1"
       d="m 202.36803,310.02606 c -1.45915,0.96509 -2.99108,2.57845 -2.96906,4.32774 0.0232,1.84577 1.63115,3.59324 3.24676,4.4861 5.13033,2.83527 14.0575,2.47418 17.54736,1.14983 2.85622,-1.08389 1.69586,-11.89257 -2.58425,-13.0406 -5.24726,-1.40745 -10.91802,0.21781 -15.24081,3.07693 z"
       id="path1041"
       sodipodi:nodetypes="ssssss" />
    <ellipse
       style="fill:none;fill-opacity:1;stroke:#333333;stroke-width:1;stroke-linecap:round;stroke-linejoin:round;stroke-miterlimit:4;stroke-dasharray:none;stroke-opacity:1;paint-order:stroke markers fill"
       id="path1050"
       cx="69.602592"
       cy="310.9838"
       rx="1.9625198"
       ry="1.9263139" />
    <path
       style="fill:none;fill-rule:evenodd;stroke:#333333;stroke-width:1px;stroke-linecap:butt;stroke-linejoin:miter;stroke-opacity:1"
       d="m 69.518549,311.56653 c 3.668691,-4.63119 2.047423,-9.66546 -1.197703,-9.66143 -3.294293,1.05137 -0.863688,3.37183 1.197703,9.66143 z"
       id="path1052"
       sodipodi:nodetypes="ccc" />
    <path
       style="fill:none;fill-rule:evenodd;stroke:#333333;stroke-width:1px;stroke-linecap:butt;stroke-linejoin:miter;stroke-opacity:1"
       d="m 69.228902,311.63418 c -4.680871,0.5682 -4.177939,7.55856 -2.678182,8.17461 2.816663,1.15701 4.014366,-2.77226 2.678182,-8.17461 z"
       id="path1054"
       sodipodi:nodetypes="csc" />
    <ellipse
       style="fill:none;fill-opacity:1;stroke:#333333;stroke-width:0.892665;stroke-linecap:round;stroke-linejoin:round;stroke-miterlimit:4;stroke-dasharray:none;stroke-opacity:1;paint-order:stroke markers fill"
       id="ellipse1056"
       cx="87.260963"
       cy="311.22891"
       rx="1.7518734"
       ry="1.7195537" />
    <path
       style="fill:none;fill-rule:evenodd;stroke:#333333;stroke-width:0.892665px;stroke-linecap:butt;stroke-linejoin:miter;stroke-opacity:1"
       d="m 87.185951,311.74909 c 3.274913,-4.1341 1.827663,-8.62802 -1.069148,-8.62442 -2.940701,0.93852 -0.770984,3.00992 1.069148,8.62442 z"
       id="path1058"
       sodipodi:nodetypes="ccc" />
    <path
       style="fill:none;fill-rule:evenodd;stroke:#333333;stroke-width:0.892665px;stroke-linecap:butt;stroke-linejoin:miter;stroke-opacity:1"
       d="m 86.927393,311.80948 c -4.178451,0.50722 -3.729501,6.74727 -2.39072,7.29719 2.514337,1.03283 3.583485,-2.4747 2.39072,-7.29719 z"
       id="path1060"
       sodipodi:nodetypes="csc" />
    <path
       style="fill:none;fill-rule:evenodd;stroke:#333333;stroke-width:1px;stroke-linecap:round;stroke-linejoin:miter;stroke-opacity:1"
       d="m 274.42049,295.34325 c 2.24168,-1.54661 3.61958,1.27062 3.66971,4.54493"
       id="path1314"
       sodipodi:nodetypes="cc" />
    <path
       style="fill:none;fill-rule:evenodd;stroke:#333333;stroke-width:1px;stroke-linecap:round;stroke-linejoin:miter;stroke-opacity:1"
       d="m 280.42049,295.34325 c 2.24168,-1.54661 3.61958,1.27062 3.66971,4.54493"
       id="path1316"
       sodipodi:nodetypes="cc" />
    <path
       style="fill:#ffffff;fill-rule:evenodd;stroke:#333333;stroke-width:1px;stroke-linecap:butt;stroke-linejoin:miter;stroke-opacity:1"
       d="m 253.23034,310.69739 3.55776,2.05121 23.28254,-27.05642 -4.2728,-2.1158 z"
       id="path1362" />
    <path
       style="fill:none;fill-rule:evenodd;stroke:#333333;stroke-width:1px;stroke-linecap:round;stroke-linejoin:miter;stroke-opacity:1"
       d="m 263.79014,296.90558 c 0,1.29252 3.56754,4.2075 4.29655,3.65795"
       id="path1364"
       sodipodi:nodetypes="cc" />
    <path
       style="fill:none;fill-rule:evenodd;stroke:#333333;stroke-width:1px;stroke-linecap:round;stroke-linejoin:miter;stroke-opacity:1"
       d="m 262.4158,298.45868 c 0,1.29252 3.56754,4.2075 4.29655,3.65795"
       id="path1366"
       sodipodi:nodetypes="cc" />
    <path
       style="fill:none;fill-rule:evenodd;stroke:#333333;stroke-width:1px;stroke-linecap:round;stroke-linejoin:miter;stroke-opacity:1"
       d="m 260.95208,300.10116 c 0,1.29252 3.56754,4.2075 4.29655,3.65795"
       id="path1368"
       sodipodi:nodetypes="cc" />
    <path
       style="fill:none;fill-rule:evenodd;stroke:#333333;stroke-width:1px;stroke-linecap:round;stroke-linejoin:miter;stroke-opacity:1"
       d="m 259.70076,301.79938 c 0,1.29252 3.56754,4.2075 4.29655,3.65795"
       id="path1370"
       sodipodi:nodetypes="cc" />
    <path
       style="fill:none;fill-rule:evenodd;stroke:#333333;stroke-width:1px;stroke-linecap:round;stroke-linejoin:miter;stroke-opacity:1"
       d="m 258.6282,303.31884 c 0,1.29252 3.56754,4.2075 4.29655,3.65795"
       id="path1372"
       sodipodi:nodetypes="cc" />
    <path
       style="fill:none;fill-rule:evenodd;stroke:#333333;stroke-width:1px;stroke-linecap:round;stroke-linejoin:miter;stroke-opacity:1"
       d="m 257.37688,304.65954 c 0,1.29252 3.56754,4.2075 4.29655,3.65795"
       id="path1374"
       sodipodi:nodetypes="cc" />
    <path
       style="fill:none;fill-rule:evenodd;stroke:#333333;stroke-width:1px;stroke-linecap:round;stroke-linejoin:miter;stroke-opacity:1"
       d="m 268.62297,300.09541 c 0,-1.29252 -3.56754,-4.2075 -4.29655,-3.65795"
       id="path1376"
       sodipodi:nodetypes="cc" />
    <path
       style="fill:none;fill-rule:evenodd;stroke:#333333;stroke-width:1px;stroke-linecap:round;stroke-linejoin:miter;stroke-opacity:1"
       d="m 269.87429,298.66533 c 0,-1.29252 -3.56754,-4.2075 -4.29655,-3.65795"
       id="path1378"
       sodipodi:nodetypes="cc" />
    <path
       style="fill:none;fill-rule:evenodd;stroke:#333333;stroke-width:1px;stroke-linecap:round;stroke-linejoin:miter;stroke-opacity:1"
       d="m 271.03623,297.14587 c 0,-1.29252 -3.56754,-4.2075 -4.29655,-3.65795"
       id="path1380"
       sodipodi:nodetypes="cc" />
    <path
       style="fill:none;fill-rule:evenodd;stroke:#333333;stroke-width:1px;stroke-linecap:round;stroke-linejoin:miter;stroke-opacity:1"
       d="m 272.28755,295.71579 c 0,-1.29252 -3.56754,-4.2075 -4.29655,-3.65795"
       id="path1382"
       sodipodi:nodetypes="cc" />
    <path
       style="fill:none;fill-rule:evenodd;stroke:#333333;stroke-width:1px;stroke-linecap:round;stroke-linejoin:miter;stroke-opacity:1"
       d="m 273.62825,294.10695 c 0,-1.29252 -3.56754,-4.2075 -4.29655,-3.65795"
       id="path1384"
       sodipodi:nodetypes="cc" />
    <path
       style="fill:none;fill-rule:evenodd;stroke:#4d4d4d;stroke-width:1px;stroke-linecap:butt;stroke-linejoin:miter;stroke-opacity:1"
       d="m 264.00056,298.11149 c 0,0 -5.29993,-5.80717 -9.88291,-20.47684 -1.88784,-6.04278 1.5531,-9.43237 0.14402,-18.99187 -0.82872,-5.62219 0.0439,-11.36589 0.026,-17.04881 -0.0301,-9.58019 -0.37656,-19.1608 -0.2245,-28.73983 0.12249,-7.71618 0.91555,-23.13335 0.91555,-23.13335 0,0 31.80517,-29.27098 50.28897,-59.10201 12.41188,-20.03156 22.75728,-51.206859 27.57423,-70.283021"
       id="path1386"
       sodipodi:nodetypes="csssscsc" />
    <ellipse
       style="fill:#ffffff;stroke:#333333;stroke-width:2.26772;stroke-linecap:round;stroke-linejoin:round;stroke-miterlimit:4;stroke-dasharray:none;stroke-opacity:1;paint-order:stroke markers fill"
       id="path1021"
       cx="251.31738"
       cy="193.23207"
       rx="7.2577329"
       ry="5.3414607" />
    <path
       id="path1388"
       style="fill:#ffffff;fill-opacity:1;stroke:#333333;stroke-width:3;stroke-linecap:round;stroke-linejoin:round;stroke-miterlimit:4;stroke-dasharray:none;stroke-opacity:1;paint-order:stroke markers fill"
       d="m 130.66602,64.921875 a 10.804277,6.3022447 0 0 0 -10.63477,6.287109 9.6838455,5.1457176 0 0 0 -4.66406,-0.638672 9.6838455,5.1457176 0 0 0 -9.6836,5.146485 9.6838455,5.1457176 0 0 0 0.50586,1.638672 7.8084364,6.3977447 0 0 0 -4.83984,5.917969 7.8084364,6.3977447 0 0 0 1.63477,3.916015 9.2003298,6.5556579 0 0 0 -4.019536,5.417969 9.2003298,6.5556579 0 0 0 9.201176,6.55664 9.2003298,6.5556579 0 0 0 1.15039,-0.05273 8.4761839,7.0918112 0 0 0 -0.73438,2.884758 8.4761839,7.0918112 0 0 0 8.47656,7.0918 8.4761839,7.0918112 0 0 0 5.33399,-1.58008 8.6446247,6.2037368 0 0 0 8.63086,5.86914 8.6446247,6.2037368 0 0 0 5.61914,-1.49023 8.4746799,7.0451889 0 0 0 6.17578,2.2207 8.4746799,7.0451889 0 0 0 7.04492,-3.1289 7.8362594,6.9857836 0 0 0 5.57422,2.07617 7.8362594,6.9857836 0 0 0 7.83594,-6.98438 7.8362594,6.9857836 0 0 0 -0.0273,-0.57226 10.486195,5.8969336 0 0 0 2.28516,0.14257 10.486195,5.8969336 0 0 0 9.82031,-3.83007 7.11061,5.7172132 0 0 0 5.66016,-3.490234 5.9473157,6.8030553 0 0 0 0.47266,0.02344 5.9473157,6.8030553 0 0 0 5.94726,-6.802734 5.9473157,6.8030553 0 0 0 -5.29687,-6.761719 7.0527086,5.422442 0 0 0 0.14062,-1.072266 7.0527086,5.422442 0 0 0 -6.27734,-5.388672 7.9896607,4.33284 0 0 0 -7.48243,-2.814453 7.9896607,4.33284 0 0 0 -2.33203,0.189453 9.4304314,6.3398428 0 0 0 -9.39062,-5.779297 9.4304314,6.3398428 0 0 0 -2.85352,0.298829 10.338058,6.6616855 0 0 0 -9.19531,-3.619141 10.338058,6.6616855 0 0 0 -5.19726,0.904297 10.804277,6.3022447 0 0 0 -8.7129,-2.576172 10.804277,6.3022447 0 0 0 -0.16796,0 z" />
    <path
       id="path1445"
       style="fill:#ffffff;fill-opacity:1;stroke:#333333;stroke-width:2.6192;stroke-linecap:round;stroke-linejoin:round;stroke-miterlimit:4;stroke-dasharray:none;stroke-opacity:1;paint-order:stroke markers fill"
       d="m 478.15342,75.068478 a 10.850784,4.7832619 0 0 0 -10.68055,4.771774 9.7255292,3.9054839 0 0 0 -4.68414,-0.484738 9.7255292,3.9054839 0 0 0 -9.72528,3.906067 9.7255292,3.9054839 0 0 0 0.50804,1.243715 7.8420475,4.8557443 0 0 0 -4.86068,4.491605 7.8420475,4.8557443 0 0 0 1.64181,2.972167 9.2399323,4.9755968 0 0 0 -4.03684,4.112112 9.2399323,4.9755968 0 0 0 9.24079,4.97634 9.2399323,4.9755968 0 0 0 1.15534,-0.04 8.5126693,5.3825251 0 0 0 -0.73754,2.18946 8.5126693,5.3825251 0 0 0 8.51304,5.38252 8.5126693,5.3825251 0 0 0 5.35695,-1.19924 8.6818351,4.7084966 0 0 0 8.66801,4.45454 8.6818351,4.7084966 0 0 0 5.64333,-1.13105 8.5111588,5.3471398 0 0 0 6.20236,1.68546 8.5111588,5.3471398 0 0 0 7.07525,-2.37476 7.8699903,5.3020526 0 0 0 5.59821,1.57576 7.8699903,5.3020526 0 0 0 7.86967,-5.30098 7.8699903,5.3020526 0 0 0 -0.0275,-0.43434 10.531332,4.4756399 0 0 0 2.29499,0.10821 10.531332,4.4756399 0 0 0 9.86258,-2.90694 7.1412173,4.3392362 0 0 0 5.68453,-2.64901 5.9729157,5.1633659 0 0 0 0.47469,0.0178 5.9729157,5.1633659 0 0 0 5.97286,-5.16312 5.9729157,5.1633659 0 0 0 -5.31967,-5.131993 7.0830667,4.1155115 0 0 0 0.14123,-0.813826 7.0830667,4.1155115 0 0 0 -6.30436,-4.089881 8.0240519,3.2885281 0 0 0 -7.51464,-2.136107 8.0240519,3.2885281 0 0 0 -2.34207,0.143791 9.4710243,4.811798 0 0 0 -9.43104,-4.386356 9.4710243,4.811798 0 0 0 -2.8658,0.226804 10.382558,5.0560694 0 0 0 -9.2349,-2.746846 10.382558,5.0560694 0 0 0 -5.21963,0.686341 10.850784,4.7832619 0 0 0 -8.7504,-1.955257 10.850784,4.7832619 0 0 0 -0.16868,0 z" />
    <path
       style="fill:none;fill-rule:evenodd;stroke:#4d4d4d;stroke-width:1px;stroke-linecap:butt;stroke-linejoin:miter;stroke-opacity:1"
       d="m 505.36923,363.0151 c -106.19597,11.06813 -191.37607,14.90464 -220.20829,-63.04383 39.01384,-8.41616 185.04604,11.78488 225.82535,-4.86259"
       id="path923"
       sodipodi:nodetypes="ccc" />
    <path
       id="path925"
       style="fill:none;fill-rule:evenodd;stroke:#4d4d4d;stroke-width:1px;stroke-linecap:round;stroke-linejoin:round;stroke-opacity:1"
       d="m 359.92578,315.97266 c -0.34624,0.13543 -0.6635,0.35571 -0.9668,0.60937 -0.0538,1.00306 -0.17267,3.58879 0.1875,4.41797 l -1.25195,-1.06836 c -0.0398,1.30548 -0.0461,3.05381 0.2207,3.66797 l -1.5,-1.28125 c 0.40056,1.19828 1.18979,3.41749 1.74219,3.98047 l -1.8418,-0.65235 c 0.686,1.11651 1.7793,2.8108 2.39063,3.20508 l -1.3418,-0.16015 c 0.45435,0.72937 1.027,1.35004 1.76172,1.76953 l -3.97265,-0.16797 c -0.20161,-0.7623 -0.49731,-1.41149 -0.85157,-1.96485 l -0.0586,-0.008 0.0195,-0.0469 c -2.37006,-3.60916 -7.43237,-2.74273 -7.34961,1.66601 l -4.07226,-0.14257 c 0.44574,0.80611 2.28746,1.99254 4.67338,3.08204 2.10848,3.09028 6.22941,4.50905 11.52779,4.2285 0.086,1.09827 0.67664,2.2583 1.60547,3.37891 1.57078,0.50938 3.5399,1.07936 4.34765,0.98047 l -1.77929,1.15625 c 1.59895,0.52712 3.75653,1.17325 4.61328,1.06836 l -1.58399,1.02929 c 0.21283,0.10693 0.42954,0.2026 0.64649,0.30274 1.62978,-0.0873 3.65293,-0.26557 4.36328,-0.64258 l -1.29883,1.78906 c 0.12428,0.0344 0.2487,0.0621 0.37305,0.0937 1.59716,-0.44419 3.64354,-1.07882 4.28125,-1.62695 l -0.90625,2.10547 c 2.7817,0.0472 5.26679,-0.87454 6.6914,-3.28321 -5.13754,0.47548 -10.51758,-6.80859 -10.51758,-6.80859 l 10.39258,-1.35937 5.36133,-1.62305 -4.87109,-0.0371 4.75976,-3.52344 -4.71679,1.31641 4.91601,-4.30469 -4.83594,1.77344 4.56641,-5.3125 -4.58008,2.37109 c 0,0 -6.89065,3.77152 -13.9082,3.63477 0.6762,-3.7238 -5.31384,-12.31653 -7.23633,-13.61328 z"
       sodipodi:nodetypes="ccccccccccccccccccccccccccccccccccccccccccc" />
    <ellipse
       style="fill:#4d4d4d;fill-opacity:1;stroke:none;stroke-width:1;stroke-linecap:round;stroke-linejoin:round;stroke-miterlimit:4;stroke-dasharray:none;stroke-opacity:1;paint-order:stroke markers fill"
       id="path962"
       cx="350.65201"
       cy="330.57797"
       rx="1.178354"
       ry="1.0516492" />
    <path
       id="path964"
       style="fill:none;fill-rule:evenodd;stroke:#4d4d4d;stroke-width:1px;stroke-linecap:round;stroke-linejoin:round;stroke-opacity:1"
       d="m 431.00676,320.90198 c -0.32432,0.18178 -0.60825,0.44361 -0.87377,0.73659 0.0847,1.00092 0.32273,3.57842 0.79356,4.35016 l -1.38704,-0.88595 c 0.1402,1.29854 0.3745,3.03111 0.72326,3.60272 l -1.66202,-1.06269 c 0.56162,1.13177 1.64867,3.22129 2.27327,3.70292 l -1.91403,-0.39275 c 0.83309,1.01151 2.1491,2.53927 2.80886,2.84569 l -1.35107,0.026 c 0.55037,0.65992 1.20297,1.1959 1.98842,1.51031 l -3.95798,0.3802 c -0.30457,-0.72731 -0.68678,-1.32964 -1.1138,-1.829 l -0.0592,1.4e-4 0.0129,-0.0491 c -2.84409,-3.24875 -7.73905,-1.69407 -7.05051,2.66136 l -4.05314,0.41906 c 0.55241,0.73712 2.53984,1.65887 5.05297,2.40975 2.5136,2.7708 6.79054,3.6091 11.99994,2.60225 0.23628,1.07599 0.98091,2.14373 2.05508,3.12589 1.62593,0.28842 3.65474,0.58206 4.4412,0.37298 l -1.60328,1.39005 c 1.65626,0.30212 3.88222,0.64526 4.71639,0.42349 l -1.42731,1.23743 c 0.22552,0.0766 0.45333,0.14158 0.68199,0.21092 1.60227,-0.3107 3.58166,-0.76563 4.23338,-1.23679 l -1.04033,1.95075 c 0.12783,0.017 0.25488,0.0273 0.38239,0.0415 1.52086,-0.65971 3.46047,-1.56985 4.0167,-2.20051 l -0.60796,2.21013 c 2.76174,-0.33596 5.09638,-1.59084 6.17605,-4.17261 -5.02326,1.1778 -11.35431,-5.29679 -11.35431,-5.29679 l 10.10672,-2.7763 5.08704,-2.34524 -4.82987,0.63343 4.22973,-4.1448 -4.49082,1.95285 4.277,-4.94012 -4.54595,2.42192 3.79207,-5.89024 -4.2103,2.97869 c 0,0 -6.30622,4.68369 -13.27585,5.51374 0.15744,-3.78142 -6.95786,-11.4683 -9.04048,-12.48821 z"
       sodipodi:nodetypes="ccccccccccccccccccccccccccccccccccccccccccc" />
    <ellipse
       style="fill:#4d4d4d;fill-opacity:1;stroke:none;stroke-width:1;stroke-linecap:round;stroke-linejoin:round;stroke-miterlimit:4;stroke-dasharray:none;stroke-opacity:1;paint-order:stroke markers fill"
       id="ellipse966"
       cx="373.48325"
       cy="391.75513"
       rx="1.178354"
       ry="1.0516492"
       transform="rotate(-7.9080558)" />
    <path
       style="fill:none;fill-opacity:1;fill-rule:evenodd;stroke:#4d4d4d;stroke-width:1px;stroke-linecap:round;stroke-linejoin:round;stroke-opacity:1"
       d="m 309.52857,311.97117 c 1.39142,6.58898 7.23688,2.25316 8.88204,0.29991 -0.29709,4.17425 2.21032,3.4504 3.27064,6.70538 0,0 2.11667,-6.13288 7.60699,-2.088"
       id="path968"
       sodipodi:nodetypes="cccc" />
    <path
       style="fill:none;fill-opacity:1;fill-rule:evenodd;stroke:#4d4d4d;stroke-width:1px;stroke-linecap:round;stroke-linejoin:round;stroke-opacity:1"
       d="m 382.98454,314.36817 c 2.88754,6.08382 7.56262,0.50597 8.7077,-1.77669 0.68313,4.12868 2.95304,2.84083 4.74219,5.75941 0,0 0.63033,-6.45718 6.91163,-3.80203"
       id="path970"
       sodipodi:nodetypes="cccc" />
    <path
       style="fill:none;fill-opacity:1;fill-rule:evenodd;stroke:#4d4d4d;stroke-width:1px;stroke-linecap:round;stroke-linejoin:round;stroke-opacity:1"
       d="m 388.98454,352.36817 c 2.88754,6.08382 7.56262,0.50597 8.7077,-1.77669 0.68313,4.12868 2.95304,2.84083 4.74219,5.75941 0,0 0.63033,-6.45718 6.91163,-3.80203"
       id="path972"
       sodipodi:nodetypes="cccc" />
    <path
       style="fill:none;fill-opacity:1;fill-rule:evenodd;stroke:#4d4d4d;stroke-width:0.577732px;stroke-linecap:round;stroke-linejoin:round;stroke-opacity:1"
       d="m 327.80313,336.23688 c -0.87208,3.79162 3.24544,2.93976 4.58243,2.31584 -1.17021,2.11563 0.3199,2.34563 0.0846,4.30935 0,0 2.59991,-2.69998 4.49448,0.75439"
       id="path974"
       sodipodi:nodetypes="cccc" />
    <path
       style="fill:none;fill-opacity:1;fill-rule:evenodd;stroke:#4d4d4d;stroke-width:1px;stroke-linecap:round;stroke-linejoin:round;stroke-opacity:1"
       d="m 468.90321,313.43514 c 2.88754,6.08382 7.56262,0.50597 8.7077,-1.77669 0.68313,4.12868 2.95304,2.84083 4.74219,5.75941 0,0 0.63033,-6.45718 6.91163,-3.80203"
       id="path976"
       sodipodi:nodetypes="cccc" />
    <path
       style="fill:none;fill-opacity:1;fill-rule:evenodd;stroke:#4d4d4d;stroke-width:1px;stroke-linecap:round;stroke-linejoin:round;stroke-opacity:1"
       d="m 475.21177,339.60967 c 2.88754,6.08382 7.56262,0.50597 8.7077,-1.77669 0.68313,4.12868 2.95304,2.84083 4.74219,5.75941 0,0 0.63033,-6.45718 6.91163,-3.80203"
       id="path978"
       sodipodi:nodetypes="cccc" />
    <g
       id="g946">
      <path
         style="fill:none;fill-rule:evenodd;stroke:#333333;stroke-width:1px;stroke-linecap:butt;stroke-linejoin:miter;stroke-opacity:1"
         d="m 372.36587,179.66239 0.50832,15.32997 c 0,0 -3.87726,-4.49091 -6.56958,-4.77582 -3.52735,-0.37327 -6.19083,4.02841 -9.72611,4.317 -5.26802,0.43004 -6.89856,-3.96067 -7.05386,-7.35376 -0.17456,-3.81375 3.34092,-8.57965 7.14015,-8.95513 4.80953,-0.47533 6.50285,5.36332 10.33394,5.09458 2.15953,-0.15148 5.36714,-3.65684 5.36714,-3.65684 z"
         id="path934"
         sodipodi:nodetypes="ccsssssc" />
      <path
         style="fill:none;fill-rule:evenodd;stroke:#333333;stroke-width:1px;stroke-linecap:butt;stroke-linejoin:miter;stroke-opacity:1"
         d="m 371.34768,183.65285 -3.99258,0.74952 m 4.10339,1.47418 -4.22434,0.0293 m 4.30769,2.01013 -4.16953,-0.32701 m 4.02111,2.68746 -4.1542,-1.19832"
         id="path936" />
      <path
         style="fill:none;fill-rule:evenodd;stroke:#333333;stroke-width:1.00157;stroke-linecap:round;stroke-linejoin:miter;stroke-miterlimit:4;stroke-dasharray:none;stroke-opacity:1"
         d="m 358.33666,188.03033 c -0.91857,2.09732 -7.51562,3.41494 -7.51562,3.41494"
         id="path938"
         sodipodi:nodetypes="cc" />
      <ellipse
         style="fill:#333333;stroke:none;stroke-linecap:round;stroke-linejoin:round;paint-order:stroke markers fill"
         id="path940"
         cx="355.38086"
         cy="184.11438"
         rx="1.1324182"
         ry="1.162715" />
    </g>
    <path
       style="fill:none;fill-rule:evenodd;stroke:#333333;stroke-width:1px;stroke-linecap:butt;stroke-linejoin:miter;stroke-opacity:1"
       d="m 386.03977,143.95738 0.50832,15.32997 c 0,0 -3.87726,-4.49091 -6.56958,-4.77582 -3.52735,-0.37327 -6.19083,4.02841 -9.72611,4.317 -5.26802,0.43004 -6.89856,-3.96067 -7.05386,-7.35376 -0.17456,-3.81375 3.34092,-8.57965 7.14015,-8.95513 4.80953,-0.47533 6.50285,5.36332 10.33394,5.09458 2.15953,-0.15148 5.36714,-3.65683 5.36714,-3.65684 z"
       id="path948"
       sodipodi:nodetypes="ccsssssc" />
    <path
       style="fill:none;fill-rule:evenodd;stroke:#333333;stroke-width:1px;stroke-linecap:butt;stroke-linejoin:miter;stroke-opacity:1"
       d="m 385.02158,147.94784 -3.99258,0.74952 m 4.10339,1.47418 -4.22434,0.0293 m 4.30769,2.01013 -4.16953,-0.32701 m 4.02111,2.68746 -4.1542,-1.19832"
       id="path950" />
    <path
       style="fill:none;fill-rule:evenodd;stroke:#333333;stroke-width:1.00157;stroke-linecap:round;stroke-linejoin:miter;stroke-miterlimit:4;stroke-dasharray:none;stroke-opacity:1"
       d="m 372.01056,152.32532 c -0.91857,2.09732 -7.51562,3.41494 -7.51562,3.41494"
       id="path952"
       sodipodi:nodetypes="cc" />
    <ellipse
       style="fill:#333333;stroke:none;stroke-linecap:round;stroke-linejoin:round;paint-order:stroke markers fill"
       id="ellipse954"
       cx="369.05475"
       cy="148.40938"
       rx="1.1324182"
       ry="1.162715" />
    <g
       id="g967"
       transform="translate(57.965756,-43.056881)">
      <path
         style="fill:none;fill-rule:evenodd;stroke:#333333;stroke-width:1px;stroke-linecap:butt;stroke-linejoin:miter;stroke-opacity:1"
         d="m 372.36587,179.66239 0.50832,15.32997 c 0,0 -3.87726,-4.49091 -6.56958,-4.77582 -3.52735,-0.37327 -6.19083,4.02841 -9.72611,4.317 -5.26802,0.43004 -6.89856,-3.96067 -7.05386,-7.35376 -0.17456,-3.81375 3.34092,-8.57965 7.14015,-8.95513 4.80953,-0.47533 6.50285,5.36332 10.33394,5.09458 2.15953,-0.15148 5.36714,-3.65684 5.36714,-3.65684 z"
         id="path958"
         sodipodi:nodetypes="ccsssssc" />
      <path
         style="fill:none;fill-rule:evenodd;stroke:#333333;stroke-width:1px;stroke-linecap:butt;stroke-linejoin:miter;stroke-opacity:1"
         d="m 371.34768,183.65285 -3.99258,0.74952 m 4.10339,1.47418 -4.22434,0.0293 m 4.30769,2.01013 -4.16953,-0.32701 m 4.02111,2.68746 -4.1542,-1.19832"
         id="path960" />
      <path
         style="fill:none;fill-rule:evenodd;stroke:#333333;stroke-width:1.00157;stroke-linecap:round;stroke-linejoin:miter;stroke-miterlimit:4;stroke-dasharray:none;stroke-opacity:1"
         d="m 358.33666,188.03033 c -0.91857,2.09732 -7.51562,3.41494 -7.51562,3.41494"
         id="path963"
         sodipodi:nodetypes="cc" />
      <ellipse
         style="fill:#333333;stroke:none;stroke-linecap:round;stroke-linejoin:round;paint-order:stroke markers fill"
         id="ellipse965"
         cx="355.38086"
         cy="184.11438"
         rx="1.1324182"
         ry="1.162715" />
    </g>
    <g
       id="g978"
       transform="translate(84.007365,-16.699336)">
      <path
         style="fill:none;fill-rule:evenodd;stroke:#333333;stroke-width:1px;stroke-linecap:butt;stroke-linejoin:miter;stroke-opacity:1"
         d="m 372.36587,179.66239 0.50832,15.32997 c 0,0 -3.87726,-4.49091 -6.56958,-4.77582 -3.52735,-0.37327 -6.19083,4.02841 -9.72611,4.317 -5.26802,0.43004 -6.89856,-3.96067 -7.05386,-7.35376 -0.17456,-3.81375 3.34092,-8.57965 7.14015,-8.95513 4.80953,-0.47533 6.50285,5.36332 10.33394,5.09458 2.15953,-0.15148 5.36714,-3.65684 5.36714,-3.65684 z"
         id="path969"
         sodipodi:nodetypes="ccsssssc" />
      <path
         style="fill:none;fill-rule:evenodd;stroke:#333333;stroke-width:1px;stroke-linecap:butt;stroke-linejoin:miter;stroke-opacity:1"
         d="m 371.34768,183.65285 -3.99258,0.74952 m 4.10339,1.47418 -4.22434,0.0293 m 4.30769,2.01013 -4.16953,-0.32701 m 4.02111,2.68746 -4.1542,-1.19832"
         id="path971" />
      <path
         style="fill:none;fill-rule:evenodd;stroke:#333333;stroke-width:1.00157;stroke-linecap:round;stroke-linejoin:miter;stroke-miterlimit:4;stroke-dasharray:none;stroke-opacity:1"
         d="m 358.33666,188.03033 c -0.91857,2.09732 -7.51562,3.41494 -7.51562,3.41494"
         id="path973"
         sodipodi:nodetypes="cc" />
      <ellipse
         style="fill:#333333;stroke:none;stroke-linecap:round;stroke-linejoin:round;paint-order:stroke markers fill"
         id="ellipse975"
         cx="355.38086"
         cy="184.11438"
         rx="1.1324182"
         ry="1.162715" />
    </g>
    <path
       style="fill:none;fill-rule:evenodd;stroke:#333333;stroke-width:1px;stroke-linecap:butt;stroke-linejoin:miter;stroke-opacity:1"
       d="m 283.96888,48.745614 2.0267,-5.790587 11.38218,4.507038 -2.33556,6.320605 c -3.01245,-3.10205 -6.28878,-3.911813 -11.07332,-5.037056 z"
       id="path1007"
       sodipodi:nodetypes="ccccc" />
    <path
       style="fill:#ffffff;fill-rule:evenodd;stroke:#333333;stroke-width:1px;stroke-linecap:butt;stroke-linejoin:miter;stroke-opacity:1"
       d="M 319.93765,45.535678 C 308.3515,40.454818 305.16376,33.673685 303.89083,25.92312 c -0.64498,-3.927098 -6.78931,-5.942451 -7.68958,0.848922 -0.52298,3.945197 5.65964,20.708887 14.2829,24.053225"
       id="path987"
       sodipodi:nodetypes="cssc" />
    <ellipse
       style="fill:#ffffff;stroke:#333333;stroke-width:2;stroke-linecap:round;stroke-linejoin:round;stroke-miterlimit:4;stroke-dasharray:none;stroke-opacity:1;paint-order:stroke markers fill"
       id="ellipse989"
       cx="-299.24017"
       cy="21.10141"
       rx="4.2119317"
       ry="3.5954134"
       transform="scale(-1,1)" />
    <path
       style="fill:#ffffff;fill-rule:evenodd;stroke:#333333;stroke-width:0.91556px;stroke-linecap:butt;stroke-linejoin:miter;stroke-opacity:1"
       d="m 361.04199,48.09011 c 7.43432,1.836901 29.1981,5.13276 34.36656,1.814468 0,0 5.84444,3.071545 -0.13423,7.715954 -5.9507,2.285335 -31.811,0.251795 -36.65426,-1.306933 z"
       id="path996"
       sodipodi:nodetypes="ccccc" />
    <path
       id="path998"
       style="fill:#ffffff;stroke:#333333;stroke-width:1.83112;stroke-linecap:round;stroke-linejoin:round;stroke-miterlimit:4;stroke-dasharray:none;stroke-opacity:1;paint-order:stroke markers fill"
       d="m 398.55913,49.080706 c 2.34829,0.373406 4.97994,1.052097 4.68419,3.328991 l -1.29074,9.937002 c -0.29574,2.276896 -3.22232,6.139144 -5.57061,5.765737 -2.3483,-0.373406 -0.41118,-6.322184 -2.87347,-9.629674 l 0.11274,-5.989264 c 0.0432,-2.294301 2.58959,-3.786198 4.93789,-3.412792 z"
       sodipodi:nodetypes="sssscss" />
    <path
       style="fill:#ffffff;fill-rule:evenodd;stroke:#333333;stroke-width:1px;stroke-linecap:butt;stroke-linejoin:miter;stroke-opacity:1"
       d="m 365.27239,51.749545 c 7.97306,2.04328 31.22424,5.609977 36.76724,1.918868 0,0 6.35772,3.516098 -0.0542,8.682317 -6.38192,2.542097 -34.11624,0.280084 -39.31047,-1.45377 z"
       id="path991"
       sodipodi:nodetypes="ccccc" />
    <path
       id="rect980"
       style="fill:#ffffff;stroke:#333333;stroke-width:2;stroke-linecap:round;stroke-linejoin:round;stroke-miterlimit:4;stroke-dasharray:none;paint-order:stroke markers fill"
       transform="rotate(4.7240145)"
       d="m 305.98373,17.489351 c 5.53665,-2.65365 42.07021,0.158239 54.92502,-1.753182 3.89581,-0.57928 9.88643,1.859583 9.29051,5.752886 l -1.18836,7.763875 c -0.59592,3.893303 -13.24294,4.11537 -17.1631,4.496513 -15.89917,1.545819 -27.94592,0.769881 -41.91888,1.154821 -3.93715,0.108465 -13.68512,-0.806744 -13.55313,-4.743178 0.16495,-4.919096 0.86894,-4.717425 1.30341,-7.076138 0.71349,-3.873483 4.75276,-3.893278 8.30453,-5.595597 z"
       sodipodi:nodetypes="sssssssss" />
    <path
       style="fill:#ffffff;fill-rule:evenodd;stroke:#333333;stroke-width:1px;stroke-linecap:butt;stroke-linejoin:miter;stroke-opacity:1"
       d="m 321.20249,48.655282 c 11.58615,-5.08086 14.77389,-11.861993 16.04682,-19.612558 0.64498,-3.927098 6.78931,-5.942451 7.68958,0.848922 0.52298,3.945197 -5.65964,20.708887 -14.2829,24.053225"
       id="path983"
       sodipodi:nodetypes="cssc" />
    <ellipse
       style="fill:#ffffff;stroke:#333333;stroke-width:2;stroke-linecap:round;stroke-linejoin:round;stroke-miterlimit:4;stroke-dasharray:none;stroke-opacity:1;paint-order:stroke markers fill"
       id="path985"
       cx="341.89996"
       cy="24.221014"
       rx="4.2119317"
       ry="3.5954134" />
    <path
       id="rect993"
       style="fill:#ffffff;stroke:#333333;stroke-width:2;stroke-linecap:round;stroke-linejoin:round;stroke-miterlimit:4;stroke-dasharray:none;stroke-opacity:1;paint-order:stroke markers fill"
       d="m 405.50827,52.851436 c 2.51847,0.415359 5.34082,1.170302 5.02364,3.70301 l -1.38428,11.053446 c -0.31717,2.53271 -3.45583,6.82889 -5.97429,6.41353 -2.51847,-0.415359 -0.44098,-7.032495 -3.0817,-10.711589 l 0.12091,-6.66217 c 0.0463,-2.552071 2.77725,-4.211586 5.29572,-3.796227 z"
       sodipodi:nodetypes="sssscss" />
    <path
       id="path1000"
       style="fill:#ffffff;stroke:#333333;stroke-width:2;stroke-linecap:round;stroke-linejoin:round;stroke-miterlimit:4;stroke-dasharray:none;stroke-opacity:1;paint-order:stroke markers fill"
       d="m 278.41248,38.271428 c -2.69883,-0.02919 -5.02169,0.984079 -5.93945,2.916016 -1.46841,3.091099 0.828,7.980115 5.27734,10.09375 0.0305,0.01448 0.0613,0.02492 0.0918,0.03906 1.56778,2.209181 3.30469,3.046875 3.30469,3.046875 0,0 0.37388,-0.778136 0.71875,-2.097657 3.0275,0.07065 5.70293,-1.287205 6.7207,-3.429687 1.46841,-3.091099 -0.68152,-7.2516 -5.13086,-9.365234 -1.6685,-0.792614 -3.42367,-1.18561 -5.04297,-1.203126 z" />
    <path
       style="fill:#333333;fill-rule:evenodd;stroke:#333333;stroke-width:1px;stroke-linecap:butt;stroke-linejoin:miter;stroke-opacity:1"
       d="m 288.9102,42.490087 -3.79075,2.98253 c -2.53126,-3.440401 -7.39621,-3.365425 -7.39621,-3.365425 l -4.22175,7.278787 c 0,0 -4.24263,-6.215963 -1.48914,-9.375282 1.61721,-1.855564 4.15053,-3.401473 6.60825,-3.266871 3.95345,0.216518 6.34182,0.105626 10.2896,5.746261 z"
       id="path1009"
       sodipodi:nodetypes="ccccssc" />
    <ellipse
       style="fill:#333333;stroke:none;stroke-width:0.945047;stroke-linecap:round;stroke-linejoin:round;paint-order:stroke markers fill"
       id="ellipse1011"
       cx="278.8522"
       cy="48.766258"
       rx="1.0701885"
       ry="1.0988204" />
    <path
       style="fill:none;fill-rule:evenodd;stroke:#333333;stroke-width:1px;stroke-linecap:round;stroke-linejoin:miter;stroke-opacity:1"
       d="m 285.36748,52.075678 c 0.46164,-1.471224 -0.91056,-3.421539 -0.91056,-3.421539"
       id="path1019" />
  </g>
</svg>
